<?xml version="1.0" standalone="no"?>
<!DOCTYPE svg PUBLIC "-//W3C//DTD SVG 20010904//EN"
 "http://www.w3.org/TR/2001/REC-SVG-20010904/DTD/svg10.dtd">
<svg version="1.0" xmlns="http://www.w3.org/2000/svg"
 width="900.000000pt" height="465.000000pt" viewBox="0 0 900.000000 465.000000"
 preserveAspectRatio="xMidYMid meet">

<g transform="translate(0.000000,465.000000) scale(0.100000,-0.100000)"
fill="#000000" stroke="none">
<path d="M2089 3404 c-7 -132 -16 -164 -44 -164 -13 0 -22 -31 -32 -107 -5
-46 14 -103 35 -103 9 0 11 -16 8 -60 -3 -34 -1 -60 5 -60 5 0 9 26 9 59 0 56
1 59 25 59 25 0 25 -1 25 -89 0 -49 4 -89 9 -89 5 0 6 41 4 90 -3 56 -1 90 5
90 6 0 13 -6 15 -12 3 -7 6 -2 6 12 1 15 6 31 12 37 10 10 8 66 -5 133 -2 14
-5 28 -5 33 -1 4 -8 7 -16 7 -22 0 -33 30 -39 99 -3 35 -7 66 -10 69 -3 3 -6
1 -7 -4z"/>
<path d="M2152 2980 c0 -14 2 -19 5 -12 2 6 2 18 0 25 -3 6 -5 1 -5 -13z"/>
<path d="M2027 2933 c-4 -3 -7 -11 -7 -17 0 -6 5 -5 12 2 6 6 9 14 7 17 -3 3
-9 2 -12 -2z"/>
<path d="M2091 2924 c0 -11 3 -14 6 -6 3 7 2 16 -1 19 -3 4 -6 -2 -5 -13z"/>
<path d="M2158 2893 c7 -65 12 -67 12 -5 0 29 -4 52 -9 52 -5 0 -6 -21 -3 -47z"/>
<path d="M2049 2858 c0 -18 -2 -69 -5 -113 -2 -44 -4 -104 -5 -132 0 -29 -5
-56 -10 -59 -6 -4 -6 -11 2 -20 8 -10 8 -22 0 -45 -6 -17 -8 -50 -4 -72 4 -27
3 -38 -5 -33 -11 7 -11 -12 1 -31 7 -12 1 -57 -11 -78 -9 -16 -9 -45 0 -39 4
3 8 -9 8 -25 0 -31 -14 -42 -23 -18 -2 6 -3 -7 -3 -30 1 -27 5 -38 11 -33 7 6
9 -5 7 -31 -4 -36 -6 -38 -17 -22 -12 16 -13 15 -12 -10 1 -15 6 -27 11 -27 4
0 0 -12 -9 -27 l-18 -28 21 19 c22 19 22 19 21 0 -2 -30 -17 -81 -18 -62 0 9
-5 19 -10 22 -14 9 -8 -48 7 -59 9 -7 10 -24 6 -59 -7 -45 -8 -48 -22 -30 -13
18 -14 18 -7 -3 5 -19 2 -23 -14 -23 -22 0 -28 14 -11 25 6 3 10 11 10 18 0 6
-7 2 -15 -9 -14 -18 -14 -17 -16 16 -2 33 -2 32 -8 -9 -5 -40 -9 -46 -38 -53
-38 -10 -44 -33 -26 -99 13 -45 12 -50 -56 -250 -38 -112 -75 -219 -81 -236
-11 -30 -15 -33 -55 -33 -24 0 -47 -5 -50 -10 -4 -6 -7 -48 -7 -93 l1 -83
-126 -199 c-69 -110 -153 -244 -187 -297 l-61 -97 -3 145 c-3 144 -3 144 -27
150 -14 3 -25 14 -25 23 -1 14 -3 13 -15 -3 -10 -13 -23 -17 -44 -14 l-31 5 0
-79 c0 -74 -1 -78 -22 -78 -23 0 -23 2 -20 112 1 62 -1 118 -5 124 -9 12 -468
-16 -490 -29 -9 -6 -13 -37 -13 -97 l0 -89 -35 -12 c-27 -10 -35 -19 -37 -43
-5 -50 -23 -35 -19 16 2 43 0 48 -28 63 l-31 16 0 287 c0 280 -1 288 -23 327
l-23 40 -99 0 -100 0 4 -320 c1 -176 5 -323 8 -327 8 -15 -18 -8 -82 21 l-65
30 0 -320 0 -319 4500 0 4500 0 0 262 c0 251 -1 264 -23 307 l-22 46 -3 -38
c-4 -45 -22 -39 -22 7 0 31 -3 34 -44 45 -57 14 -169 14 -183 0 -7 -7 -27 0
-67 26 -46 29 -56 41 -56 64 0 19 -7 32 -25 41 -34 18 -75 -8 -75 -49 0 -23
-10 -37 -49 -65 -53 -39 -62 -43 -58 -23 3 16 -138 22 -193 7 -34 -9 -40 -15
-40 -38 0 -42 -13 -55 -51 -50 -19 3 -42 8 -51 13 -16 6 -18 -1 -18 -84 0 -80
-2 -92 -20 -101 -11 -6 -20 -16 -20 -23 0 -20 -107 -49 -131 -37 -16 9 -19 22
-19 90 l0 80 -49 0 c-30 0 -51 5 -53 12 -3 9 -9 8 -21 -4 -10 -9 -26 -20 -37
-23 -13 -4 -20 -15 -20 -31 0 -20 -5 -24 -29 -24 -42 0 -61 -10 -61 -31 0 -14
-7 -19 -30 -19 -25 0 -30 4 -30 25 0 14 -4 25 -10 25 -5 0 -20 10 -32 22 -14
14 -23 18 -26 10 -2 -7 -24 -12 -53 -12 l-49 0 0 -101 c0 -73 -3 -100 -12 -97
-6 2 -12 22 -12 44 l-1 39 -175 -1 c-174 -1 -227 -5 -247 -17 -5 -3 -8 -21 -7
-39 3 -29 2 -28 -7 7 -5 22 -8 69 -7 105 3 63 4 65 31 68 16 2 34 -2 42 -8 12
-10 15 -2 18 42 3 37 4 32 3 -19 -1 -52 3 -74 12 -78 20 -7 22 -6 19 6 -1 6 5
14 13 16 12 4 12 3 1 -5 -10 -7 -10 -11 -1 -14 7 -2 -6 -12 -28 -22 -23 -10
-43 -25 -47 -33 -4 -12 -1 -13 12 -7 10 5 96 10 191 12 163 3 172 4 172 22 0
19 -8 20 -112 22 l-113 2 115 6 115 6 -80 4 -80 4 65 3 65 4 -3 75 c-2 48 1
80 8 90 11 12 -1 14 -86 16 l-99 2 91 3 c85 3 92 5 87 23 -4 13 -16 20 -42 23
l-36 4 38 1 c40 2 52 22 13 22 -29 0 -56 46 -56 95 0 24 -5 34 -19 38 -15 4
-21 -1 -24 -22 l-4 -26 -2 28 c-2 38 -31 37 -31 -2 0 -22 5 -30 24 -33 21 -4
26 -1 28 21 3 25 4 25 9 -4 l5 -30 -67 0 c-37 0 -65 3 -62 7 2 5 11 8 19 8 9
0 14 10 14 29 0 25 -3 28 -22 24 -21 -4 -22 -4 -4 8 12 7 40 10 78 6 l59 -5
-6 231 c-11 470 -15 516 -37 528 -12 6 -36 9 -54 6 -19 -3 -34 -2 -34 4 0 5 9
9 20 9 15 0 20 7 20 25 0 28 -7 30 -33 11 -16 -12 -18 -51 -27 -454 -10 -411
-12 -443 -31 -487 -11 -26 -23 -44 -26 -42 -2 3 5 24 16 48 18 37 21 61 20
168 0 153 -20 333 -36 338 -22 8 -53 -79 -33 -92 5 -3 10 -16 10 -28 -1 -20
-4 -18 -30 13 -16 19 -30 40 -30 47 0 7 -6 10 -12 8 -7 -3 -31 -6 -52 -8 -33
-3 -40 -8 -43 -28 -6 -40 -34 -131 -39 -126 -2 2 -6 49 -7 103 -3 81 -6 100
-19 102 -17 3 -33 -53 -23 -79 10 -28 23 -264 15 -273 -9 -9 -79 122 -81 151
0 11 -3 13 -6 6 -6 -17 -50 -17 -56 0 -4 10 -6 10 -6 0 -1 -9 -19 -13 -54 -13
l-53 0 -13 88 c-6 48 -10 94 -7 102 3 8 0 33 -8 55 -11 31 -20 41 -40 43 -22
3 -26 -1 -26 -22 0 -14 -5 -28 -11 -31 -6 -4 -9 -28 -8 -54 1 -26 -1 -52 -5
-59 -4 -7 -4 -16 -1 -22 3 -5 3 -15 -1 -22 -4 -6 -8 -30 -8 -52 -1 -35 -4 -41
-21 -38 -11 2 -23 9 -27 15 -6 9 -8 9 -8 0 0 -18 -106 -18 -113 0 -3 6 -6 1
-6 -13 -1 -14 -17 -50 -36 -80 l-35 -54 0 60 c0 33 5 97 10 142 11 86 4 122
-25 122 -12 0 -15 -16 -15 -74 0 -41 -4 -77 -9 -81 -5 -3 -16 23 -24 57 -9 35
-16 57 -16 51 -1 -8 -15 -13 -36 -13 -21 0 -35 5 -35 13 0 6 -9 -2 -19 -19
-28 -46 -42 -51 -35 -14 5 22 2 36 -11 50 -33 37 -42 25 -49 -69 -4 -51 -13
-97 -21 -108 -13 -16 -14 -15 -15 20 0 26 -4 37 -15 37 -8 0 -15 -4 -15 -8 0
-4 -16 -32 -35 -62 l-36 -55 6 63 c4 51 3 62 -10 62 -13 0 -15 19 -15 119 0
67 -4 122 -10 126 -5 3 -9 20 -8 38 1 22 -7 41 -25 60 -24 27 -26 27 -32 8 -5
-18 -16 -21 -97 -23 l-91 -3 -13 -45 c-11 -36 -20 -127 -24 -247 0 -8 -13 -13
-30 -13 -29 0 -30 1 -32 53 l-1 52 -6 -50 c-6 -48 -8 -50 -38 -53 l-33 -3 -1
78 c-1 43 -1 93 0 111 2 18 -2 38 -7 45 -5 7 -13 27 -17 45 l-7 32 -93 0 c-87
0 -94 1 -101 22 -6 20 -7 21 -17 2 -6 -10 -17 -25 -25 -33 -8 -9 -12 -25 -8
-42 3 -17 1 -29 -7 -32 -8 -2 -12 -39 -12 -125 0 -91 -3 -122 -12 -122 -10 0
-13 -33 -15 -127 -2 -165 -3 -171 -11 -179 -4 -4 -7 -26 -7 -48 0 -68 -12
-146 -21 -140 -5 3 -9 32 -9 65 l0 59 -49 0 c-62 0 -81 -7 -81 -31 0 -13 -7
-19 -22 -19 -13 0 -36 -7 -51 -15 -22 -11 -33 -12 -52 -3 -23 10 -25 16 -25
85 l0 73 -44 0 c-25 0 -46 5 -48 12 -3 8 -12 4 -26 -10 -12 -12 -26 -22 -32
-22 -5 0 -9 -10 -7 -22 1 -13 -4 -23 -13 -24 -8 -2 -32 -5 -52 -9 l-38 -6 0
-79 0 -80 -290 0 -290 0 0 54 c0 56 -13 72 -51 64 -8 -2 -15 7 -17 19 -2 12
-12 25 -23 28 -10 4 -19 11 -19 16 0 6 -6 7 -12 3 -7 -5 -27 -7 -45 -5 l-33 3
0 -65 c0 -83 -13 -97 -73 -75 l-42 15 -3 65 c-3 59 -1 66 18 71 26 7 26 27 0
27 -17 0 -20 7 -21 43 0 23 -3 36 -6 30 -6 -17 -40 -17 -46 0 -4 9 -6 9 -6 0
-1 -15 -31 -18 -31 -3 0 6 -8 5 -20 -2 -17 -11 -22 -10 -29 1 -7 11 -9 11 -13
0 -4 -12 -9 -12 -27 -1 -12 7 -21 8 -21 2 0 -14 -27 -12 -33 3 -4 9 -6 9 -6 0
-1 -17 -28 -17 -35 0 -5 10 -7 10 -12 0 -3 -7 -12 -13 -19 -13 -7 0 -16 6 -18
13 -4 9 -6 9 -6 0 -1 -17 -28 -17 -35 0 -5 10 -7 10 -12 0 -7 -17 -31 -17 -37
0 -4 9 -6 9 -6 0 -1 -17 -38 -17 -44 0 -4 9 -6 9 -6 0 -1 -7 -8 -13 -16 -13
-8 0 -15 6 -15 13 0 25 -20 -18 -20 -45 0 -21 -5 -28 -20 -28 -11 0 -20 -5
-20 -11 0 -6 9 -13 20 -16 18 -5 20 -14 20 -94 0 -49 -2 -89 -4 -89 -5 0 -127
188 -224 346 l-80 130 0 82 c0 44 -3 86 -7 92 -3 5 -26 10 -49 10 l-43 0 -23
63 c-13 34 -49 140 -80 235 -57 171 -57 175 -45 223 17 64 10 87 -29 97 -25 7
-32 14 -34 38 -1 16 -9 79 -17 139 -8 61 -22 178 -30 260 -18 171 -22 186 -35
165 -5 -8 -5 -19 -1 -25 13 -16 19 -62 10 -77 -4 -7 -4 -17 0 -23 13 -16 25
-78 13 -72 -12 8 -9 -20 6 -56 14 -32 16 -61 5 -54 -5 3 -8 -10 -8 -28 0 -22
4 -31 13 -28 8 4 12 -6 12 -32 0 -20 -4 -34 -8 -31 -14 8 -9 -39 6 -49 7 -6
16 -31 18 -55 5 -42 4 -44 -10 -26 -9 11 -16 15 -16 9 0 -7 5 -15 10 -18 17
-11 11 -25 -11 -25 -16 0 -19 4 -14 23 6 21 5 21 -9 4 -13 -17 -15 -15 -22 29
-5 39 -4 50 10 60 16 12 16 14 -3 33 -13 13 -21 34 -21 54 1 30 1 31 15 13 8
-11 15 -15 15 -10 0 6 -6 16 -12 23 -11 11 -10 14 0 18 10 4 10 7 -1 17 -22
17 -32 85 -14 92 9 3 13 13 10 25 -5 16 -8 18 -14 7 -6 -8 -9 1 -9 27 0 29 3
36 10 25 7 -11 8 -8 6 13 -1 15 -8 33 -14 39 -14 14 -17 62 -4 54 10 -6 9 30
-1 40 -13 13 -8 56 6 48 9 -5 9 -4 0 6 -6 7 -9 19 -6 27 3 8 0 19 -8 24 -11 6
-11 14 -2 39 6 16 8 32 3 35 -4 3 -9 31 -9 62 -1 32 -3 78 -5 103 -2 25 -5 63
-5 85 -1 22 -5 35 -9 28 -5 -8 -7 -158 -2 -158 1 0 3 -56 5 -125 2 -69 7 -136
11 -149 5 -16 4 -22 -4 -18 -11 8 -11 -18 1 -29 10 -10 9 -76 -1 -70 -4 2 -7
-11 -7 -29 0 -25 3 -31 13 -23 9 8 12 2 12 -24 0 -19 -5 -39 -11 -45 -8 -8 -8
-13 0 -17 12 -8 15 -78 4 -89 -3 -4 -8 -19 -9 -33 -2 -21 0 -23 12 -13 12 10
14 4 14 -37 0 -44 -1 -46 -15 -28 -14 18 -15 18 -12 -6 1 -14 6 -28 12 -32 6
-5 5 -12 -3 -20 -6 -6 -12 -17 -12 -23 0 -5 9 1 20 15 l20 25 0 -54 0 -54 -21
19 c-22 19 -22 19 -10 -3 10 -20 9 -23 -8 -23 -15 0 -18 5 -14 23 4 21 3 21
-11 -3 -15 -24 -15 -23 -16 34 0 52 2 57 13 42 12 -16 13 -13 13 28 -1 39 -3
44 -13 29 -11 -14 -13 -10 -13 28 0 25 5 50 12 57 9 9 9 15 0 24 -15 15 -16
80 -1 95 8 8 8 13 0 17 -6 4 -11 23 -11 42 0 19 4 33 8 30 10 -6 9 30 -1 40
-10 10 -9 66 1 60 10 -6 8 21 -3 47 -4 9 -4 32 -1 51 4 18 2 44 -4 57 -10 22
-10 22 -6 2 2 -12 -1 -24 -7 -26 -5 -1 -11 -11 -13 -20 -1 -9 2 -15 7 -11 5 3
9 -9 9 -26 0 -17 -4 -29 -9 -26 -10 7 -9 -20 2 -30 10 -10 9 -72 -2 -78 -5 -3
-11 -18 -14 -33 -5 -26 -4 -26 9 -8 13 17 14 15 14 -23 0 -27 -5 -44 -16 -50
-15 -8 -15 -10 0 -15 20 -8 23 -85 4 -92 -7 -3 -13 -19 -14 -35 -1 -27 0 -28
12 -12 12 15 13 11 13 -33 0 -48 0 -49 -14 -25 -13 24 -13 24 -10 -15 2 -22 0
-47 -5 -55 -8 -13 -12 -12 -25 5 -16 20 -16 19 -5 -2 6 -13 14 -23 19 -23 5 0
16 10 24 23 15 21 16 20 16 -32 l1 -54 -21 19 c-22 19 -22 19 -10 -3 10 -20 9
-23 -9 -23 -17 0 -20 4 -15 23 7 22 7 22 -9 2 -14 -19 -15 -17 -16 33 0 41 4
54 18 60 9 4 17 18 18 31 1 22 0 23 -13 6 -12 -17 -13 -13 -13 29 0 38 3 46
13 38 10 -8 12 -5 12 14 -1 13 -5 27 -8 31 -9 8 -9 78 0 87 11 10 12 37 2 30
-5 -3 -9 11 -9 31 0 26 3 34 13 29 6 -4 9 -4 5 1 -4 4 -3 14 3 21 7 8 7 14 -1
19 -13 8 -13 68 1 82 8 8 8 13 0 17 -12 8 -15 58 -5 69 4 3 8 77 10 164 2 87
6 186 8 221 2 34 0 62 -5 62 -5 0 -9 -15 -10 -32z m271 -1138 c0 -6 -82 -10
-225 -10 -143 0 -225 4 -225 10 0 6 82 10 225 10 143 0 225 -4 225 -10z m-410
-180 c0 -5 -4 -10 -9 -10 -6 0 -13 5 -16 10 -3 6 1 10 9 10 9 0 16 -4 16 -10z
m35 0 c-3 -5 -10 -10 -16 -10 -5 0 -9 5 -9 10 0 6 7 10 16 10 8 0 12 -4 9 -10z
m320 0 c3 -5 2 -10 -4 -10 -5 0 -13 5 -16 10 -3 6 -2 10 4 10 5 0 13 -4 16
-10z m40 0 c-3 -5 -10 -10 -16 -10 -5 0 -9 5 -9 10 0 6 7 10 16 10 8 0 12 -4
9 -10z m-428 -15 c13 -14 12 -17 -9 -35 -21 -18 -38 -25 -38 -16 0 10 23 66
27 66 2 0 11 -7 20 -15z m81 -12 c-15 -15 -31 -23 -35 -19 -4 4 3 16 17 26 37
29 49 24 18 -7z m47 -22 c-4 -23 -11 -41 -16 -41 -11 0 -11 6 2 53 13 50 23
41 14 -12z m193 7 c10 -39 9 -58 -2 -47 -10 9 -24 89 -16 89 4 0 12 -19 18
-42z m51 23 c13 -10 19 -21 14 -24 -6 -4 -21 5 -33 18 -27 29 -16 33 19 6z
m98 -16 c13 -40 8 -42 -27 -16 -20 16 -22 21 -11 35 20 23 26 20 38 -19z
m-297 17 c0 -5 -7 -17 -15 -28 -14 -18 -14 -18 -15 9 0 17 5 27 15 27 8 0 15
-4 15 -8z m97 -34 c24 -35 35 -70 56 -179 15 -75 27 -139 27 -143 0 -3 -61 -6
-136 -6 -116 0 -135 2 -130 15 3 8 15 68 27 132 38 212 91 273 156 181z m19
27 c11 -29 -2 -37 -19 -11 -15 23 -16 26 -2 26 9 0 18 -7 21 -15z m-202 -39
c-3 -9 -10 -13 -16 -10 -5 3 -4 12 3 20 15 18 22 13 13 -10z m276 -2 c0 -8 -4
-12 -10 -9 -5 3 -10 13 -10 21 0 8 5 12 10 9 6 -3 10 -13 10 -21z m-352 -6
c-3 -7 -13 -15 -24 -17 -16 -3 -17 -1 -5 13 16 19 34 21 29 4z m443 -4 c12
-14 11 -16 -5 -13 -11 2 -21 10 -24 17 -5 17 13 15 29 -4z m-451 -40 c0 -17
-22 -14 -28 4 -2 7 3 12 12 12 9 0 16 -7 16 -16z m45 6 c-3 -5 -10 -10 -16
-10 -5 0 -9 5 -9 10 0 6 7 10 16 10 8 0 12 -4 9 -10z m365 0 c0 -5 -4 -10 -9
-10 -6 0 -13 5 -16 10 -3 6 1 10 9 10 9 0 16 -4 16 -10z m50 6 c0 -2 -7 -9
-15 -16 -12 -10 -15 -10 -15 4 0 9 7 16 15 16 8 0 15 -2 15 -4z m-480 -45 c0
-4 -14 -15 -32 -25 -29 -18 -31 -18 -25 -2 4 10 10 29 13 42 6 24 7 24 25 8
11 -9 19 -20 19 -23z m100 31 c0 -12 -57 -52 -64 -45 -4 4 6 17 21 30 29 24
43 28 43 15z m28 -45 c-5 -26 -14 -47 -20 -47 -11 0 -2 53 14 83 15 29 17 16
6 -36z m221 31 c16 -46 21 -78 11 -78 -5 0 -12 11 -15 25 -3 14 -7 36 -10 50
-7 31 3 33 14 3z m81 -25 c0 -19 -10 -16 -37 9 -32 30 -29 42 7 21 17 -9 30
-23 30 -30z m99 -26 c1 -7 -16 0 -49 22 -12 8 -11 13 5 31 l19 21 12 -33 c7
-18 13 -37 13 -41z m-446 2 c-4 -13 -9 -17 -15 -11 -11 11 -3 32 12 32 4 0 6
-9 3 -21z m321 -11 c-4 -6 -10 -5 -15 3 -14 22 -10 33 6 19 8 -7 12 -17 9 -22z
m101 -8 c3 -6 -3 -10 -13 -10 -11 0 -22 9 -25 20 -4 17 -2 18 13 10 11 -6 22
-15 25 -20z m-505 5 c0 -10 -10 -15 -27 -15 -26 0 -26 1 -7 15 25 19 34 19 34
0z m55 -5 c3 -5 -1 -10 -10 -10 -9 0 -13 5 -10 10 3 6 8 10 10 10 2 0 7 -4 10
-10z m-65 -34 c0 -24 -16 -27 -35 -6 -18 19 -17 20 8 20 17 0 27 -5 27 -14z
m117 -41 c-9 -45 -13 -53 -23 -43 -10 10 -10 22 -1 56 17 65 36 55 24 -13z
m277 13 c5 -20 6 -44 1 -54 -6 -15 -11 -6 -21 36 -7 30 -13 57 -14 58 0 2 6 2
13 0 6 -3 16 -21 21 -40z m136 34 c0 -4 -5 -13 -12 -20 -18 -18 -28 -15 -28 8
0 13 7 20 20 20 11 0 20 -4 20 -8z m-560 -41 c0 -3 -14 -14 -31 -24 -28 -15
-31 -15 -25 -1 3 9 9 27 12 40 6 24 7 24 25 8 11 -9 19 -20 19 -23z m609 -34
c1 -7 -16 0 -49 22 -12 8 -11 13 5 31 l19 21 12 -33 c7 -18 13 -37 13 -41z
m-505 48 c-4 -8 -10 -12 -15 -9 -14 8 -10 24 6 24 9 0 12 -6 9 -15z m374 -1
c37 -18 40 -34 13 -58 -23 -21 -36 -7 -27 30 4 15 3 23 -3 20 -5 -3 -11 1 -15
9 -7 19 -6 19 32 -1z m-398 -19 c6 -8 9 -23 5 -36 l-7 -21 -20 20 c-12 12 -18
27 -15 36 8 20 21 20 37 1z m-70 -35 c0 -17 -7 -20 -37 -20 l-38 1 35 19 c19
11 36 19 38 20 1 0 2 -9 2 -20z m565 0 l30 -20 -31 0 c-23 0 -33 5 -37 20 -6
25 0 25 38 0z m2667 -101 c-3 -94 -2 -99 17 -99 20 0 21 6 21 93 0 93 9 125
29 113 7 -5 11 -47 11 -117 l0 -109 -60 0 -60 0 0 94 c0 105 13 157 33 137 8
-8 11 -43 9 -112z m442 89 c3 -13 6 -60 6 -105 0 -67 3 -83 15 -83 12 0 15 16
15 83 0 95 7 127 26 127 11 0 14 -24 14 -115 l0 -116 -57 3 -58 3 3 100 c1 55
5 106 7 113 7 19 22 14 29 -10z m-3639 2 c3 -5 1 -10 -4 -10 -6 0 -11 5 -11
10 0 6 2 10 4 10 3 0 8 -4 11 -10z m-55 -50 c-6 -11 -12 -20 -14 -20 -2 0 -11
9 -21 20 -18 20 -17 20 14 20 29 0 31 -2 21 -20z m60 16 c0 -2 -7 -6 -15 -10
-8 -3 -15 -1 -15 4 0 6 7 10 15 10 8 0 15 -2 15 -4z m480 -6 c0 -5 -7 -7 -15
-4 -8 4 -15 8 -15 10 0 2 7 4 15 4 8 0 15 -4 15 -10z m70 -5 c-7 -8 -21 -15
-31 -15 -11 0 -19 7 -19 15 0 10 10 15 31 15 27 0 30 -2 19 -15z m3990 -20 c0
-13 -4 -27 -10 -30 -6 -4 -10 8 -10 30 0 22 4 34 10 30 6 -3 10 -17 10 -30z
m-4655 -3 c-8 -8 -25 10 -19 20 4 6 9 5 15 -3 4 -7 6 -15 4 -17z m691 1 c-10
-10 -19 5 -10 18 6 11 8 11 12 0 2 -7 1 -15 -2 -18z m3931 -20 c-3 -10 -5 -2
-5 17 0 19 2 27 5 18 2 -10 2 -26 0 -35z m50 0 c-3 -10 -5 -2 -5 17 0 19 2 27
5 18 2 -10 2 -26 0 -35z m-4542 27 c-3 -5 -10 -10 -16 -10 -5 0 -9 5 -9 10 0
6 7 10 16 10 8 0 12 -4 9 -10z m55 0 c0 -5 -5 -10 -11 -10 -5 0 -7 5 -4 10 3
6 8 10 11 10 2 0 4 -4 4 -10z m320 0 c0 -5 -2 -10 -4 -10 -3 0 -8 5 -11 10 -3
6 -1 10 4 10 6 0 11 -4 11 -10z m70 0 c0 -5 -4 -10 -9 -10 -6 0 -13 5 -16 10
-3 6 1 10 9 10 9 0 16 -4 16 -10z m230 -40 c0 -7 -162 -10 -465 -10 -303 0
-465 3 -465 10 0 7 162 10 465 10 303 0 465 -3 465 -10z m-820 -85 c0 -2 -9
-9 -20 -15 -16 -8 -26 -7 -42 5 -22 15 -21 15 20 15 23 0 42 -2 42 -5z m772
-10 c-19 -14 -25 -14 -49 -1 l-28 15 50 1 c47 0 49 -1 27 -15z m-849 -9 c22
-17 22 -21 -8 -40 l-25 -16 0 35 c0 38 6 42 33 21z m227 -12 l0 -25 -30 21
c-16 12 -30 23 -30 26 0 2 14 4 30 4 26 0 30 -4 30 -26z m100 1 c0 -28 -12
-32 -30 -10 -7 8 -18 15 -24 15 -6 -1 3 -12 19 -25 l30 -25 -32 0 c-26 0 -33
4 -33 19 0 37 12 51 41 51 24 0 29 -4 29 -25z m100 0 c0 -28 -12 -32 -30 -10
-7 8 -18 15 -24 15 -6 -1 3 -12 19 -25 l30 -25 -33 0 c-31 0 -33 2 -30 35 2
32 4 35 35 35 29 0 33 -3 33 -25z m50 0 c-13 -14 -27 -25 -32 -25 -4 0 -8 11
-8 25 0 21 5 25 32 25 l31 0 -23 -25z m124 9 c15 -38 7 -54 -26 -54 l-33 0 30
25 c17 13 25 24 19 25 -6 0 -17 -7 -24 -15 -18 -22 -30 -18 -30 10 0 21 5 25
29 25 17 0 31 -6 35 -16z m71 -9 c-38 -31 -45 -31 -45 0 0 22 4 25 38 25 l37
0 -30 -25z m225 -10 l0 -35 -25 16 c-30 19 -30 23 -7 40 26 21 32 17 32 -21z
m-816 1 c-3 -9 -10 -13 -16 -10 -5 3 -4 12 3 20 15 18 22 13 13 -10z m720 -7
c-8 -13 -24 -1 -24 18 0 13 3 13 15 3 8 -7 12 -16 9 -21z m-594 -13 c11 -14 8
-16 -19 -16 -27 0 -31 4 -31 25 0 22 3 24 18 16 10 -5 24 -17 32 -25z m300 9
c0 -22 -4 -25 -32 -25 l-33 1 30 24 c17 14 31 25 33 25 1 0 2 -11 2 -25z m198
3 c-2 -18 -10 -24 -38 -26 l-35 -3 30 25 c37 31 47 32 43 4z m167 -31 c18 -14
15 -15 -30 -10 -60 7 -64 9 -39 27 19 14 30 12 69 -17z m-810 12 c9 -14 7 -15
-45 -22 l-45 -6 25 19 c28 22 55 26 65 9z m5 -54 c0 -29 -3 -30 -35 -9 -13 9
-30 14 -37 12 -7 -3 5 -14 27 -26 l40 -21 -32 -1 c-23 0 -36 6 -44 21 -13 24
-4 35 31 42 47 8 50 7 50 -18z m160 0 c0 -14 -3 -25 -6 -25 -3 0 -19 11 -36
25 l-30 25 36 0 c32 0 36 -3 36 -25z m90 0 c0 -22 -3 -24 -18 -16 -10 5 -24
17 -32 25 -11 14 -8 16 19 16 27 0 31 -4 31 -25z m100 3 c0 -34 -12 -46 -42
-46 -23 0 -28 5 -28 25 0 25 1 25 25 9 37 -24 44 -19 10 9 l-30 24 33 1 c27 0
32 -4 32 -22z m65 -3 c-34 -28 -27 -33 10 -9 24 16 25 16 25 -10 0 -22 -4 -25
-27 -24 -32 2 -43 14 -43 46 0 18 5 22 33 22 l32 -1 -30 -24z m125 21 c0 -3
-13 -14 -30 -26 l-30 -21 0 25 c0 22 4 26 30 26 17 0 30 -2 30 -4z m70 -21
c-19 -14 -35 -25 -37 -25 -2 0 -3 11 -3 25 0 22 4 25 37 25 l37 0 -34 -25z
m169 16 c22 -6 22 -7 -13 -23 -20 -10 -36 -14 -36 -9 0 5 -3 16 -6 25 -7 17
11 20 55 7z m2752 -36 l6 -40 1 43 2 43 50 -2 50 -3 0 -43 0 -43 -70 0 -70 0
0 45 c0 57 22 57 31 0z m-3621 -27 c0 -5 -13 -8 -30 -8 -35 0 -36 2 -13 36
l16 26 13 -24 c7 -12 13 -26 14 -30z m215 27 l30 -25 -35 2 c-28 2 -36 8 -38
26 -4 28 6 28 43 -3z m115 -21 c0 -2 -13 -4 -30 -4 -26 0 -30 4 -30 26 l0 25
30 -21 c17 -12 30 -23 30 -26z m310 21 c0 -22 -4 -25 -32 -25 l-33 1 28 24
c35 31 37 31 37 0z m90 0 c0 -22 -4 -25 -32 -25 l-33 1 30 24 c17 14 31 25 33
25 1 0 2 -11 2 -25z m168 0 c-8 -19 -19 -25 -42 -25 l-31 0 40 25 c22 13 41
25 42 25 2 0 -3 -11 -9 -25z m57 -5 l16 -30 -31 0 c-32 0 -36 9 -20 41 14 25
17 24 35 -11z m-935 -59 c15 -30 13 -31 -30 -13 -47 20 -51 32 -10 32 19 0 33
-7 40 -19z m40 15 c0 -11 -19 -15 -25 -6 -3 5 1 10 9 10 9 0 16 -2 16 -4z
m180 -3 c0 -5 -5 -15 -10 -23 -8 -13 -13 -12 -32 8 l-22 22 32 0 c18 0 32 -3
32 -7z m180 2 c0 -2 -18 -14 -40 -25 l-39 -20 -28 25 -28 24 68 1 c37 0 67 -2
67 -5z m176 -20 l-30 -24 -38 20 c-21 11 -38 22 -38 24 0 3 30 5 68 5 l67 -1
-29 -24z m278 10 c-4 -8 -10 -12 -15 -9 -14 8 -10 24 6 24 9 0 12 -6 9 -15z
m86 8 c0 -5 -18 -16 -40 -25 -40 -16 -45 -14 -34 16 6 16 74 24 74 9z m-778
-20 c18 -16 17 -17 -13 -30 -45 -19 -50 -16 -31 17 20 35 20 35 44 13z m598
-34 c0 -11 -1 -11 -39 2 -36 13 -37 17 -13 35 15 11 19 10 35 -7 9 -12 17 -25
17 -30z m3988 27 c2 -10 0 -22 -6 -28 -6 -6 -8 0 -5 16 6 31 -20 37 -36 9 -6
-10 -11 -13 -11 -7 -1 33 52 43 58 10z m52 -13 c-11 -17 -11 -17 -6 0 3 10 6
24 7 30 0 9 2 9 5 0 3 -7 0 -20 -6 -30z m-4526 2 c16 -24 16 -25 -9 -25 -20 0
-25 5 -25 25 0 14 4 25 9 25 5 0 16 -11 25 -25z m356 -6 c0 -14 -7 -19 -26
-19 -25 0 -25 6 -1 37 12 17 27 7 27 -18z m4010 26 c0 -2 -10 -9 -22 -15 -22
-11 -22 -10 -4 4 21 17 26 19 26 11z m-4731 -56 c-15 -10 -49 -12 -49 -4 0 3
7 17 16 31 l17 25 15 -22 c12 -18 13 -23 1 -30z m68 3 c-19 -2 -33 3 -43 15
-23 31 -16 34 29 11 42 -22 42 -23 14 -26z m961 23 c-8 -18 -19 -25 -40 -25
-15 0 -28 2 -28 5 0 4 68 43 77 45 2 0 -3 -11 -9 -25z m72 -27 c0 -11 -32 -10
-49 1 -10 7 -11 13 -1 31 l12 23 19 -24 c10 -13 19 -27 19 -31z m3647 30 c-3
-8 -6 -5 -6 6 -1 11 2 17 5 13 3 -3 4 -12 1 -19z m-340 6 c-3 -3 -12 -4 -19
-1 -8 3 -5 6 6 6 11 1 17 -2 13 -5z m-3887 -27 c0 -13 -3 -26 -6 -30 -6 -5
-84 41 -84 49 0 2 20 4 45 4 40 0 45 -2 45 -23z m85 7 c-11 -9 -32 -22 -47
-30 -28 -14 -28 -14 -28 16 0 29 1 30 48 30 44 -1 46 -2 27 -16z m-332 -31
c-8 -21 -16 -39 -18 -41 -1 -2 -21 5 -44 14 -48 19 -44 31 17 50 61 19 63 18
45 -23z m546 23 c25 -7 47 -18 49 -24 3 -9 -67 -47 -73 -40 -6 7 -35 68 -35
73 0 8 10 6 59 -9z m2980 -22 c26 -33 21 -71 -13 -101 -21 -18 -31 -20 -57
-13 -45 13 -59 28 -59 66 0 71 86 102 129 48z m-3336 -8 c36 -22 37 -24 15
-30 -52 -13 -68 -8 -68 24 0 36 4 36 53 6z m167 -6 c0 -32 -11 -36 -58 -24
-22 6 -22 7 10 30 43 30 48 30 48 -6z m4750 18 c0 -6 -201 -10 -485 -10 -8 0
-21 1 -27 3 -13 3 329 14 450 14 34 0 62 -3 62 -7z m-5965 -38 c-30 -31 -46
-40 -70 -38 l-30 1 31 4 c19 2 44 18 65 39 18 18 35 34 38 34 3 0 -13 -18 -34
-40z m663 28 c-6 -18 -28 -21 -28 -4 0 9 7 16 16 16 9 0 14 -5 12 -12z m312
-18 c0 -37 -6 -37 -50 0 l-35 29 43 1 c40 0 42 -1 42 -30z m340 25 c0 -8 -53
-54 -62 -55 -5 0 -8 14 -8 30 0 28 3 30 35 30 19 0 35 -2 35 -5z m261 -8 c-1
-12 -15 -9 -19 4 -3 6 1 10 8 8 6 -3 11 -8 11 -12z m3844 -2 c18 -6 -628 -4
-675 3 -25 4 115 6 310 4 195 -1 360 -4 365 -7z m-4795 -14 c16 -30 13 -31
-35 -13 -54 20 -58 32 -10 32 24 0 37 -6 45 -19z m1050 11 c0 -4 -20 -14 -45
-23 -49 -18 -50 -17 -35 12 8 13 21 19 45 19 19 0 35 -3 35 -8z m5887 -38 c2
-23 1 -25 -5 -10 -8 18 -9 18 -15 3 -4 -10 -4 -30 -1 -46 4 -16 1 -32 -5 -35
-12 -8 -16 105 -4 118 13 13 28 -1 30 -30z m-7947 -10 c0 -2 -9 0 -20 6 -11 6
-20 13 -20 16 0 2 9 0 20 -6 11 -6 20 -13 20 -16z m912 -26 c-9 -4 -25 -7 -35
-7 -17 -1 -17 0 0 29 l18 30 17 -22 c16 -22 16 -23 0 -30z m261 36 c18 -9 33
-18 35 -19 2 -2 -4 -18 -14 -36 l-17 -33 -23 45 c-34 66 -33 69 19 43z m137 1
c15 -18 15 -19 -32 -38 -43 -18 -45 -16 -21 24 19 32 34 36 53 14z m423 -16
c10 -18 16 -33 15 -35 -2 -1 -23 6 -47 17 -42 18 -43 20 -25 34 28 21 37 18
57 -16z m127 26 c0 -10 -44 -95 -50 -95 -6 0 -32 62 -27 66 1 1 16 9 32 17 31
17 45 20 45 12z m255 -53 c-6 -1 -21 1 -33 5 -21 8 -21 10 -6 32 l16 23 18
-29 c11 -19 13 -29 5 -31z m-1135 33 c19 -7 27 -14 18 -14 -9 -1 -23 -4 -31
-7 -10 -3 -20 3 -27 15 -12 24 -8 25 40 6z m1068 -5 c-7 -11 -19 -18 -26 -15
-8 3 -21 5 -30 5 -18 1 34 28 56 29 10 1 10 -3 0 -19z m2412 -25 c0 -38 3 -45
20 -45 17 0 20 7 20 46 0 38 3 45 18 42 13 -2 18 -15 20 -51 l3 -47 -60 0 -61
0 0 43 c0 46 5 57 27 57 9 0 13 -14 13 -45z m458 -3 c3 -34 7 -42 23 -42 16 0
19 7 19 45 0 33 4 45 15 45 11 0 15 -12 15 -50 l0 -50 -55 0 -55 0 0 51 c0 43
3 50 18 47 12 -2 18 -15 20 -46z m-3763 -50 c-1 -2 -19 7 -38 18 -36 21 -36
22 -20 47 l17 25 22 -44 c12 -23 21 -44 19 -46z m504 59 c29 -11 68 -32 88
-47 32 -24 113 -136 113 -156 0 -4 -13 -8 -30 -8 -23 0 -30 -4 -30 -20 0 -17
-7 -20 -50 -20 l-50 0 0 35 0 35 -70 0 c-68 0 -70 1 -70 25 0 24 -2 25 -75 25
-60 0 -75 3 -75 15 0 9 -9 15 -25 15 -16 0 -25 -6 -25 -15 0 -8 -9 -15 -20
-15 -19 0 -20 -7 -20 -95 0 -86 -2 -95 -19 -95 -10 0 -21 9 -24 20 -7 28 -57
28 -57 0 0 -13 -7 -20 -20 -20 -13 0 -20 7 -20 20 0 16 -7 20 -35 20 -19 0
-35 4 -35 10 0 5 14 40 32 77 75 160 196 228 384 218 46 -2 103 -12 133 -24z
m241 -17 c0 -6 -16 -18 -35 -27 -19 -9 -35 -14 -35 -11 0 2 9 23 21 45 19 38
21 40 34 22 8 -10 15 -23 15 -29z m-1818 15 l33 -1 -29 -7 -29 -6 36 -27 c19
-16 40 -28 46 -28 6 0 11 -7 11 -15 0 -8 7 -15 15 -15 8 0 15 7 15 15 0 12 16
15 85 15 l85 0 0 -145 c0 -133 -1 -144 -17 -138 -10 3 -22 9 -28 13 -5 4 -35
10 -65 14 -46 5 -59 3 -78 -14 -13 -11 -21 -24 -17 -30 3 -6 48 -10 105 -10
78 0 99 -3 104 -15 5 -13 -11 -15 -109 -15 l-115 0 0 164 0 164 -47 38 c-84
70 -81 66 -56 55 12 -6 37 -12 55 -12z m5936 -51 c0 -40 -3 -58 -5 -40 -3 23
-9 32 -23 32 -14 0 -20 -9 -23 -32 -2 -18 -5 0 -5 40 l-2 72 30 0 30 0 -2 -72z
m92 62 c-13 -9 -13 -11 0 -20 10 -6 11 -10 3 -10 -9 0 -13 -16 -13 -44 0 -34
4 -46 18 -49 13 -4 11 -5 -5 -6 -21 -1 -23 4 -25 52 l-1 52 -7 -55 -7 -55 -1
63 c-1 40 2 61 8 57 6 -3 10 -2 10 4 0 5 -6 12 -12 14 -7 3 1 6 17 6 23 1 27
-2 15 -9z m-5872 -7 c-15 -2 -42 -2 -60 0 -18 2 -6 4 27 4 33 0 48 -2 33 -4z
m5262 -33 c6 17 8 4 7 -40 0 -47 -2 -54 -5 -25 -4 36 -6 38 -12 15 -8 -24 -8
-24 -9 -2 -2 36 -19 25 -24 -15 -3 -35 -4 -34 -5 9 -2 38 1 46 13 42 11 -5 15
2 17 27 l1 34 5 -35 c5 -33 5 -34 12 -10z m80 -20 c14 0 20 9 23 33 2 17 5 -1
5 -40 l2 -73 -30 0 -30 0 2 73 c0 39 3 57 5 40 3 -24 9 -33 23 -33z m100 0
c14 0 20 9 23 33 2 17 5 -1 5 -40 l2 -73 -30 0 -30 0 2 73 c0 39 3 57 5 40 3
-24 9 -33 23 -33z m123 -2 c9 -6 9 -8 0 -8 -8 0 -13 -13 -13 -31 0 -16 4 -28
9 -24 5 3 12 1 16 -5 4 -6 -8 -10 -29 -10 -20 0 -36 4 -36 10 0 5 7 7 15 4 11
-5 15 1 15 25 0 18 -5 31 -12 32 -10 0 -10 2 0 6 6 2 13 19 13 36 l2 32 4 -30
c3 -16 10 -33 16 -37z m-4809 27 c-4 -8 -10 -12 -15 -9 -14 8 -10 24 6 24 9 0
12 -6 9 -15z m1024 4 c-2 -6 -8 -10 -13 -10 -5 0 -11 4 -13 10 -2 6 4 11 13
11 9 0 15 -5 13 -11z m3572 1 c0 -5 -4 -10 -10 -10 -5 0 -10 5 -10 10 0 6 5
10 10 10 6 0 10 -4 10 -10z m100 0 c0 -5 -4 -10 -10 -10 -5 0 -10 5 -10 10 0
6 5 10 10 10 6 0 10 -4 10 -10z m214 -32 c8 -6 7 -8 -1 -8 -8 0 -13 -14 -13
-35 0 -28 -4 -35 -20 -35 -11 0 -20 4 -20 10 0 5 7 7 15 4 11 -5 15 1 15 25 0
18 -5 31 -12 32 -10 0 -10 2 0 6 6 2 13 14 13 26 1 21 2 21 6 2 3 -11 10 -23
17 -27z m-4944 17 c7 -9 11 -17 9 -19 -7 -7 -99 17 -99 26 0 15 77 9 90 -7z
m1154 8 c4 -4 -14 -13 -41 -20 -53 -13 -62 -11 -43 12 13 15 71 21 84 8z
m4250 -3 c-6 -6 -9 -24 -6 -40 l4 -30 28 20 c16 11 43 20 61 20 39 0 36 -7 -6
-11 -16 -2 -41 -11 -55 -20 -14 -9 -35 -20 -47 -23 -22 -7 -23 -4 -23 38 0 34
4 46 18 49 30 8 36 7 26 -3z m-94 -45 c0 -44 0 -45 -32 -44 -18 1 -25 3 -15 6
9 2 17 12 18 21 0 14 2 13 9 -3 8 -19 9 -19 9 3 1 17 -5 22 -24 22 -18 0 -25
5 -25 20 0 16 7 20 30 20 29 0 30 -2 30 -45z m-5431 -42 c-24 -7 -45 -13 -47
-13 -1 0 8 18 20 40 l23 40 24 -27 23 -27 -43 -13z m265 52 c23 -17 22 -18
-26 -38 -43 -18 -44 -17 -23 23 18 34 22 35 49 15z m831 -15 c21 -41 20 -42
-22 -25 -49 21 -51 24 -29 41 28 20 33 18 51 -16z m244 -12 c21 -37 21 -40 5
-34 -11 4 -31 10 -46 13 -16 3 -28 7 -28 10 0 7 34 52 40 53 3 0 16 -19 29
-42z m3101 27 c0 -10 -9 -15 -27 -14 -28 2 -28 2 -3 7 l25 5 -25 8 -25 7 28 1
c18 1 27 -4 27 -14z m60 5 c-12 -8 -11 -10 8 -10 18 0 22 -6 22 -30 0 -25 -4
-30 -25 -30 -22 0 -25 4 -25 40 0 31 4 40 18 40 14 0 15 -2 2 -10z m-4400 -16
l25 -7 -29 -8 c-30 -8 -56 3 -56 23 0 9 6 8 60 -8z m1170 7 c0 -19 -27 -30
-56 -22 l-29 8 35 11 c46 13 50 14 50 3z m5470 -21 c3 35 3 35 7 5 3 -16 10
-33 16 -38 7 -4 -1 -6 -18 -5 -32 3 -43 25 -29 56 6 13 9 9 14 -18 l7 -35 3
35z m69 -2 c1 43 21 41 21 -3 0 -31 -3 -35 -25 -35 -21 0 -25 5 -25 28 0 42
14 49 21 10 l6 -33 2 33z m563 0 l1 -33 4 33 c6 43 23 41 23 -4 0 -31 -3 -35
-22 -32 -18 2 -24 11 -26 36 -2 18 1 32 7 32 6 0 12 -15 13 -32z m96 -6 c3
-28 0 -32 -20 -32 -21 0 -24 4 -20 34 5 45 36 43 40 -2z m-568 -2 c0 -23 -4
-30 -20 -30 -16 0 -20 7 -20 30 0 23 4 30 20 30 16 0 20 -7 20 -30z m-6600 -5
c0 -2 -7 -23 -16 -45 -13 -31 -21 -40 -33 -35 -9 4 -29 12 -44 17 -15 6 -26
15 -25 20 6 17 118 58 118 43z m775 -14 c58 -22 66 -35 28 -49 -15 -5 -36 -13
-45 -17 -13 -5 -21 2 -32 30 -27 63 -25 64 49 36z m-967 -2 c-2 -6 -8 -10 -13
-10 -5 0 -11 4 -13 10 -2 6 4 11 13 11 9 0 15 -5 13 -11z m1120 -1 c-6 -18
-28 -21 -28 -4 0 9 7 16 16 16 9 0 14 -5 12 -12z m537 -2 l35 -15 0 -125 0
-126 -66 0 c-91 0 -94 4 -94 139 0 110 0 110 28 125 35 19 54 20 97 2z m-1692
-22 c11 -14 17 -28 14 -30 -5 -5 -72 10 -107 23 -10 3 -1 10 25 18 22 7 42 13
45 14 3 0 13 -11 23 -25z m1227 12 l45 -14 -58 -17 c-32 -9 -61 -15 -64 -12
-3 4 25 57 31 57 0 0 21 -6 46 -14z m3120 4 c-19 -13 -30 -13 -30 0 0 6 10 10
23 10 18 0 19 -2 7 -10z m-63 -6 c-3 -3 -12 -4 -19 -1 -8 3 -5 6 6 6 11 1 17
-2 13 -5z m2749 -28 c8 -35 1 -89 -13 -94 -10 -3 -13 13 -13 57 0 61 14 82 26
37z m-7173 -62 c-21 -6 -39 -10 -41 -9 -2 2 4 18 13 35 l17 32 25 -23 25 -24
-39 -11z m91 40 c41 -7 39 -24 -3 -24 -16 0 -36 9 -47 22 -16 18 -17 20 -2 15
9 -3 33 -9 52 -13z m190 -4 c25 -12 46 -23 46 -26 0 -8 -30 -64 -34 -64 -5 0
-66 98 -66 105 0 8 4 6 54 -15z m915 -25 c-28 -47 -79 -46 -79 1 0 8 84 42 92
37 4 -2 -2 -19 -13 -38z m206 25 c-11 -12 -31 -20 -52 -20 -44 0 -42 14 5 27
60 17 68 16 47 -7z m68 -9 c23 -40 23 -40 -23 -29 -39 10 -39 10 -22 34 22 30
24 30 45 -5z m5480 -21 c15 -17 27 -41 27 -55 0 -25 0 -25 -99 -25 -110 0
-111 0 -111 -82 0 -36 2 -38 30 -38 24 0 30 4 30 21 0 34 19 59 45 59 26 0 45
-25 45 -59 0 -18 6 -21 49 -21 48 0 50 1 53 31 6 64 70 64 76 0 4 -39 22 -41
22 -2 0 36 22 55 55 47 21 -5 25 -12 25 -41 0 -19 5 -35 10 -35 6 0 10 9 10
21 0 34 19 59 45 59 26 0 45 -25 45 -59 0 -18 6 -21 50 -21 l50 0 0 35 c0 29
4 36 25 41 33 8 55 -11 55 -47 0 -26 4 -29 30 -29 29 0 30 2 30 44 0 76 0 76
-112 76 l-100 0 6 32 c8 38 21 55 59 75 38 19 87 10 117 -22 24 -26 38 -86 39
-167 l1 -48 -400 0 -400 0 0 44 c0 66 18 147 38 169 42 47 111 45 155 -3z
m-1915 18 c7 -7 12 -42 12 -85 l0 -73 -35 0 -35 0 0 78 c0 43 3 82 7 85 10 11
38 8 51 -5z m-3781 -65 c-3 -2 -16 2 -29 9 -12 7 -24 14 -26 15 -2 0 2 10 9
21 13 20 14 20 32 -10 10 -17 16 -32 14 -35z m-1003 15 c14 -23 24 -44 22 -45
-3 -3 -77 25 -84 32 -5 5 21 55 29 55 4 0 19 -19 33 -42z m4473 7 c1 -16 0
-24 -3 -17 -3 6 -14 12 -25 12 -13 0 -19 7 -19 21 0 15 5 20 23 17 17 -2 23
-10 24 -33z m101 -12 c3 -38 6 -43 27 -43 21 0 24 5 27 43 2 35 7 43 26 45 20
3 22 0 22 -47 l0 -51 -131 0 c-86 0 -128 3 -124 10 4 6 26 8 56 4 l49 -7 0 47
c0 43 2 47 23 44 18 -2 23 -10 25 -45z m312 27 c0 -13 -7 -20 -20 -20 -13 0
-20 -7 -20 -20 0 -11 6 -20 13 -20 6 0 29 -3 49 -6 l37 -6 3 43 c2 37 7 45 26
47 19 3 22 -1 22 -30 0 -25 -3 -29 -10 -18 -9 13 -10 13 -10 0 0 -13 -1 -13
-10 0 -8 12 -10 11 -10 -6 0 -16 8 -23 31 -28 65 -13 69 -10 69 40 0 41 2 45
23 42 19 -3 22 -10 25 -51 l3 -48 -133 3 -133 3 -3 33 c-4 45 3 62 28 62 13 0
20 -7 20 -20z m1930 -25 c0 -25 -4 -45 -10 -45 -5 0 -10 20 -10 45 0 25 5 45
10 45 6 0 10 -20 10 -45z m208 -4 c2 -32 0 -42 -10 -39 -7 3 -14 23 -16 47 -2
32 0 42 10 39 7 -3 14 -23 16 -47z m-7155 11 c-5 -22 -6 -22 -25 -5 -20 18
-20 18 4 24 29 7 28 8 21 -19z m981 13 c3 -8 1 -15 -4 -15 -6 0 -10 7 -10 15
0 8 2 15 4 15 2 0 6 -7 10 -15z m256 -5 c0 -4 -6 -13 -14 -19 -11 -9 -15 -8
-20 5 -10 26 -7 32 14 27 11 -3 20 -9 20 -13z m3199 6 c7 -9 11 -39 9 -77 l-3
-63 -45 -1 -45 0 -3 57 c-2 32 2 67 8 78 13 24 61 27 79 6z m-2146 -115 c-3
-44 -10 -81 -14 -81 -11 0 -11 40 -2 134 9 98 23 52 16 -53z m511 -80 c-19
-23 -33 117 -17 175 6 22 9 4 14 -71 3 -55 5 -102 3 -104z m-2844 164 c13 -14
21 -27 19 -29 -4 -5 -94 18 -129 31 -10 4 -2 9 20 13 59 12 66 11 90 -15z
m1394 15 c11 0 16 -3 12 -7 -9 -9 -129 -43 -134 -38 -2 2 4 15 15 30 15 22 24
25 53 20 19 -2 44 -5 54 -5z m4279 -17 c-7 -2 -19 -2 -25 0 -7 3 -2 5 12 5 14
0 19 -2 13 -5z m-5786 -68 c-4 -10 -63 -28 -77 -23 -4 2 4 21 17 42 l25 39 19
-24 c10 -13 17 -28 16 -34z m86 14 c-33 -14 -62 -9 -73 10 -15 30 -14 30 41
13 39 -12 46 -18 32 -23z m190 11 c4 -4 -13 -15 -38 -25 -25 -9 -49 -15 -51
-12 -3 3 2 19 10 36 15 28 18 30 44 19 15 -7 31 -15 35 -18z m1054 -36 c-2 -3
-16 -2 -31 2 -19 4 -26 13 -26 29 0 35 22 36 44 3 10 -16 16 -31 13 -34z m231
28 c3 -33 -7 -39 -41 -26 -13 5 -13 9 1 35 21 36 36 32 40 -9z m-60 8 c-14
-21 -28 -24 -68 -13 -24 6 -23 7 10 19 19 7 43 13 53 13 15 1 15 -2 5 -19z
m979 -32 c-2 -13 -4 -5 -4 17 -1 22 1 32 4 23 2 -10 2 -28 0 -40z m430 -45
c-2 -21 -4 -6 -4 32 0 39 2 55 4 38 2 -18 2 -50 0 -70z m-2800 32 c-7 -16 -67
-22 -67 -6 0 8 61 30 69 25 2 -2 1 -10 -2 -19z m203 10 c0 -18 -9 -21 -68 -28
-51 -6 -47 1 11 25 53 21 57 21 57 3z m2567 -22 c-3 -10 -5 -4 -5 12 0 17 2
24 5 18 2 -7 2 -21 0 -30z m1095 -10 l2 -48 3 48 c3 39 8 47 24 47 16 0 19 -7
19 -45 l0 -45 70 0 70 0 0 40 c0 29 4 40 15 40 11 0 15 -11 15 -40 0 -22 5
-40 10 -40 6 0 10 18 10 40 0 29 4 40 15 40 11 0 15 -12 15 -45 l0 -45 -275 0
-275 0 0 45 c0 33 4 45 15 45 11 0 15 -11 15 -40 0 -22 5 -40 10 -40 6 0 10
18 10 40 0 29 4 40 15 40 11 0 15 -11 15 -40 l0 -40 80 0 80 0 0 45 c0 38 3
45 20 45 17 0 20 -7 22 -47z m-2517 27 c18 -7 18 -9 3 -15 -23 -9 -50 -3 -56
13 -4 14 22 15 53 2z m-161 -21 c-8 -14 -24 -10 -24 6 0 9 6 12 15 9 8 -4 12
-10 9 -15z m-1274 1 c0 -5 -7 -10 -15 -10 -8 0 -15 5 -15 10 0 6 7 10 15 10 8
0 15 -4 15 -10z m1500 6 c0 -2 -7 -6 -15 -10 -8 -3 -15 -1 -15 4 0 6 7 10 15
10 8 0 15 -2 15 -4z m987 -53 c-3 -10 -5 -4 -5 12 0 17 2 24 5 18 2 -7 2 -21
0 -30z"/>
<path d="M5242 880 c0 -14 2 -19 5 -12 2 6 2 18 0 25 -3 6 -5 1 -5 -13z"/>
<path d="M5327 739 c7 -7 15 -10 18 -7 3 3 -2 9 -12 12 -14 6 -15 5 -6 -5z"/>
<path d="M5275 729 c-4 -6 -5 -12 -2 -15 2 -3 7 2 10 11 7 17 1 20 -8 4z"/>
<path d="M5295 720 c-8 -14 3 -30 21 -30 8 0 12 -4 9 -10 -3 -6 1 -7 10 -3 9
3 13 9 8 12 -5 3 -12 14 -16 24 -7 19 -22 22 -32 7z"/>
<path d="M758 493 c7 -3 16 -2 19 1 4 3 -2 6 -13 5 -11 0 -14 -3 -6 -6z"/>
<path d="M758 403 c7 -3 16 -2 19 1 4 3 -2 6 -13 5 -11 0 -14 -3 -6 -6z"/>
<path d="M6570 670 c0 -5 9 -10 20 -10 11 0 20 5 20 10 0 6 -9 10 -20 10 -11
0 -20 -4 -20 -10z"/>
<path d="M6570 637 c0 -7 9 -13 20 -14 11 -1 20 4 20 13 0 8 -9 14 -20 14 -11
0 -20 -6 -20 -13z"/>
<path d="M6160 581 c0 -24 4 -29 20 -28 15 1 20 8 20 29 0 21 -5 28 -20 28
-15 0 -20 -7 -20 -29z"/>
<path d="M6260 581 c0 -24 4 -29 20 -28 15 1 20 8 20 29 0 21 -5 28 -20 28
-15 0 -20 -7 -20 -29z"/>
<path d="M6932 600 c0 -19 2 -27 5 -17 2 9 2 25 0 35 -3 9 -5 1 -5 -18z"/>
<path d="M6820 622 c0 -4 9 -8 20 -8 11 0 20 4 20 8 0 4 -9 8 -20 8 -11 0 -20
-4 -20 -8z"/>
<path d="M5932 570 c0 -14 2 -19 5 -12 2 6 2 18 0 25 -3 6 -5 1 -5 -13z"/>
<path d="M5952 570 c0 -14 2 -19 5 -12 2 6 2 18 0 25 -3 6 -5 1 -5 -13z"/>
<path d="M8199 465 c-21 -11 -49 -58 -49 -81 0 -2 21 -4 47 -4 42 0 45 1 28
14 -20 15 -15 43 10 52 15 6 45 -11 45 -27 0 -4 -7 -15 -16 -23 -14 -15 -11
-16 30 -16 26 0 46 5 46 10 0 27 -32 69 -61 79 -40 14 -48 13 -80 -4z"/>
<path d="M8774 464 c-28 -14 -54 -49 -54 -74 0 -6 21 -10 46 -10 41 0 44 1 30
16 -22 21 -3 56 27 52 28 -4 35 -38 11 -55 -16 -11 -12 -13 29 -13 26 0 47 4
47 9 0 27 -23 62 -49 76 -37 19 -48 19 -87 -1z"/>
<path d="M6060 438 c0 -4 7 -8 15 -8 8 0 15 4 15 8 0 5 -7 9 -15 9 -8 0 -15
-4 -15 -9z"/>
<path d="M6260 438 c0 -4 7 -8 15 -8 8 0 15 4 15 8 0 5 -7 9 -15 9 -8 0 -15
-4 -15 -9z"/>
<path d="M6162 400 c0 -14 2 -19 5 -12 2 6 2 18 0 25 -3 6 -5 1 -5 -13z"/>
<path d="M6182 400 c0 -14 2 -19 5 -12 2 6 2 18 0 25 -3 6 -5 1 -5 -13z"/>
<path d="M6260 400 c0 -11 7 -20 15 -20 8 0 15 9 15 20 0 11 -7 20 -15 20 -8
0 -15 -9 -15 -20z"/>
<path d="M6692 400 c0 -14 2 -19 5 -12 2 6 2 18 0 25 -3 6 -5 1 -5 -13z"/>
<path d="M6712 400 c0 -14 2 -19 5 -12 2 6 2 18 0 25 -3 6 -5 1 -5 -13z"/>
<path d="M2021 2864 c0 -11 3 -14 6 -6 3 7 2 16 -1 19 -3 4 -6 -2 -5 -13z"/>
<path d="M2085 2871 c-3 -5 -1 -12 5 -16 5 -3 10 1 10 9 0 18 -6 21 -15 7z"/>
<path d="M2017 2813 c-4 -3 -7 -13 -7 -22 1 -13 3 -13 11 2 11 19 8 33 -4 20z"/>
<path d="M2085 2672 c-1 -103 3 -149 10 -149 14 0 13 289 -1 294 -5 2 -9 -62
-9 -145z"/>
<path d="M2166 2773 c1 -26 6 -77 10 -113 4 -36 8 -78 9 -95 1 -16 3 -39 3
-49 1 -11 5 -17 8 -13 8 7 -17 299 -26 310 -4 4 -6 -14 -4 -40z"/>
<path d="M2012 2740 c0 -14 2 -19 5 -12 2 6 2 18 0 25 -3 6 -5 1 -5 -13z"/>
<path d="M2012 2690 c0 -14 2 -19 5 -12 2 6 2 18 0 25 -3 6 -5 1 -5 -13z"/>
<path d="M2001 2614 c0 -11 3 -14 6 -6 3 7 2 16 -1 19 -3 4 -6 -2 -5 -13z"/>
<path d="M1990 2546 c0 -23 16 -27 17 -5 1 10 -2 19 -8 19 -5 0 -9 -6 -9 -14z"/>
<path d="M1985 2467 c-4 -10 -5 -21 -1 -24 10 -10 18 4 13 24 -4 17 -4 17 -12
0z"/>
<path d="M2191 2463 c1 -10 5 -29 9 -43 7 -22 8 -21 9 12 1 20 -3 40 -9 43 -5
3 -10 -2 -9 -12z"/>
<path d="M1976 2374 c-8 -20 0 -32 14 -18 5 5 5 15 1 22 -6 11 -10 10 -15 -4z"/>
<path d="M1972 2288 c-15 -15 -15 -33 1 -46 9 -8 12 -2 12 24 0 19 0 34 0 34
-1 0 -6 -5 -13 -12z"/>
<path d="M1963 2183 c-17 -6 -17 -39 0 -46 8 -3 12 5 12 24 1 16 1 29 0 28 0
0 -6 -3 -12 -6z"/>
<path d="M2067 2133 c-4 -3 -7 -11 -7 -17 0 -6 5 -5 12 2 6 6 9 14 7 17 -3 3
-9 2 -12 -2z"/>
<path d="M1933 2011 c-9 -77 -8 -98 4 -120 11 -20 13 -21 11 -6 -1 11 1 26 5
33 5 7 3 12 -4 12 -8 0 -7 5 2 17 10 11 10 14 2 9 -10 -5 -13 4 -13 35 0 32 3
39 13 31 9 -8 12 -3 12 23 0 18 -3 31 -7 29 -3 -2 -8 4 -10 13 -2 10 -9 -24
-15 -76z"/>
<path d="M2060 2081 c0 -6 4 -13 10 -16 6 -3 7 1 4 9 -7 18 -14 21 -14 7z"/>
<path d="M7096 1989 c16 -18 16 -20 1 -37 -10 -10 -17 -27 -16 -38 0 -16 2
-14 11 6 l11 25 7 -25 c6 -23 7 -23 14 12 5 27 13 38 29 41 21 4 21 4 -2 6
-15 1 -21 6 -18 15 4 9 -4 13 -25 14 -29 1 -29 0 -12 -19z"/>
<path d="M2205 1959 c-4 -6 -5 -12 -2 -15 2 -3 7 2 10 11 7 17 1 20 -8 4z"/>
<path d="M1970 1885 c-7 -9 -10 -18 -7 -21 3 -3 10 4 17 15 13 25 8 27 -10 6z"/>
<path d="M2200 1891 c0 -5 5 -13 10 -16 6 -3 10 -2 10 4 0 5 -4 13 -10 16 -5
3 -10 2 -10 -4z"/>
<path d="M2236 1883 c-6 -14 -5 -15 5 -6 7 7 10 15 7 18 -3 3 -9 -2 -12 -12z"/>
<path d="M7097 1874 c-4 -4 -7 -16 -7 -26 0 -17 -8 -21 -40 -19 -10 0 -11 -1
-2 -5 14 -7 16 -34 2 -34 -5 0 -10 -10 -10 -22 0 -13 -11 -36 -24 -52 -26 -33
-24 -66 4 -66 10 0 20 -6 23 -12 4 -10 7 -10 18 0 18 16 71 15 95 -3 22 -17
15 -19 -20 -5 -23 8 -26 7 -26 -13 0 -16 9 -26 30 -34 26 -10 30 -9 30 6 0 29
32 112 44 117 6 2 13 16 14 29 2 22 -2 25 -33 25 -32 0 -35 2 -35 30 0 16 -6
33 -14 37 -8 4 -15 17 -17 27 -4 21 -21 31 -32 20z"/>
<path d="M7215 1780 c3 -5 8 -10 11 -10 2 0 4 5 4 10 0 6 -5 10 -11 10 -5 0
-7 -4 -4 -10z"/>
<path d="M8524 1424 c3 -8 -1 -28 -9 -44 -21 -40 -19 -48 13 -53 l27 -4 -27
-2 c-17 0 -28 -7 -28 -15 0 -9 7 -12 20 -9 15 4 20 0 20 -16 0 -11 5 -21 11
-21 7 0 9 18 6 53 -9 85 -19 127 -29 127 -6 0 -7 -7 -4 -16z"/>
<path d="M4010 1398 c0 -19 2 -20 10 -8 13 19 13 30 0 30 -5 0 -10 -10 -10
-22z"/>
<path d="M3997 1318 c-13 -23 -15 -34 -6 -44 9 -11 8 -20 -5 -39 -9 -13 -16
-27 -16 -30 0 -3 20 -5 45 -5 33 0 45 4 45 14 0 8 -5 18 -11 22 -6 4 -9 19 -5
36 4 21 0 37 -12 53 l-18 23 -17 -30z m26 -63 c-7 -21 -13 -19 -13 6 0 11 4
18 10 14 5 -3 7 -12 3 -20z"/>
<path d="M6381 1321 c-8 -14 -7 -22 4 -31 11 -9 15 -9 15 -1 0 6 3 10 8 10 19
-3 22 3 12 21 -13 25 -26 25 -39 1z"/>
<path d="M8500 1220 c0 -11 -23 -45 -51 -76 -54 -60 -83 -114 -94 -177 -4 -20
-11 -40 -16 -43 -5 -3 -9 -9 -9 -14 0 -5 17 1 37 13 32 19 54 22 148 23 l110
2 -110 -7 c-127 -8 -179 -28 -181 -72 -1 -13 -6 -35 -13 -47 -10 -18 -15 -20
-31 -12 -11 6 -20 20 -20 30 0 11 -7 20 -15 20 -8 0 -15 -5 -15 -11 0 -6 -16
-30 -36 -54 -29 -36 -71 -141 -61 -152 2 -1 21 2 43 8 22 7 79 9 131 7 118 -6
129 2 132 91 1 18 5 22 21 18 10 -3 24 1 31 9 15 18 33 18 69 -1 21 -11 27
-20 23 -35 -3 -11 -2 -28 3 -37 6 -14 9 -8 13 22 4 26 11 40 21 40 11 0 15
-12 16 -48 0 -28 6 -52 14 -57 7 -4 48 -6 91 -3 45 4 97 1 124 -6 50 -13 64
-9 48 11 -5 7 -15 32 -22 56 -6 23 -24 57 -40 75 -15 17 -30 40 -34 50 -7 20
-37 23 -37 4 0 -8 -8 -21 -17 -29 -16 -14 -22 -13 -58 3 -22 10 -34 19 -27 19
7 0 22 -5 32 -10 17 -9 19 -8 11 12 -9 25 -67 46 -133 47 -39 1 -44 6 -29 29
7 11 11 11 24 -2 18 -18 37 -21 37 -6 0 6 5 10 10 10 6 0 10 -7 10 -16 0 -11
6 -14 20 -9 12 4 20 2 20 -5 0 -7 6 -10 14 -7 8 3 17 1 20 -6 3 -7 5 -6 5 4 1
8 -5 21 -11 28 -10 11 -10 13 0 7 14 -9 15 -2 2 22 -5 9 -16 42 -24 72 -15 54
-68 140 -87 140 -14 0 -48 61 -42 76 4 10 -5 14 -31 14 -29 0 -36 -4 -36 -20z
m163 -287 c-7 -2 -19 -2 -25 0 -7 3 -2 5 12 5 14 0 19 -2 13 -5z m-163 -17 c0
-8 -24 -19 -62 -29 -35 -8 -71 -18 -80 -22 -11 -4 -18 -3 -18 4 0 6 7 11 15
11 8 0 15 5 15 11 0 6 9 8 20 4 14 -5 20 -2 20 9 0 9 5 16 10 16 6 0 10 -4 10
-10 0 -16 27 -12 34 5 7 19 36 20 36 1z m50 -1 c0 -8 -9 -15 -20 -15 -11 0
-20 7 -20 15 0 8 9 15 20 15 11 0 20 -7 20 -15z m28 -62 c-21 -2 -57 -2 -80 0
-24 2 -7 4 37 4 44 0 63 -2 43 -4z m-176 -18 c-23 -7 -50 -19 -59 -27 -14 -11
-16 -11 -9 0 10 17 64 41 91 41 11 0 1 -6 -23 -14z m261 8 c-7 -2 -21 -2 -30
0 -10 3 -4 5 12 5 17 0 24 -2 18 -5z m-279 -89 c3 -9 6 -23 6 -32 -1 -15 -3
-14 -15 2 -17 22 -20 46 -6 46 5 0 12 -7 15 -16z m46 -29 c0 -36 -3 -45 -18
-45 -14 0 -17 7 -14 45 3 30 9 45 18 45 10 0 14 -13 14 -45z m290 33 c0 -7 -5
-20 -10 -28 -8 -12 -10 -9 -10 13 0 15 5 27 10 27 6 0 10 -6 10 -12z"/>
<path d="M3933 1140 c-48 -46 -81 -109 -67 -131 2 -4 0 -10 -6 -14 -16 -10
-12 -52 6 -59 11 -4 18 1 21 14 6 24 23 27 23 4 0 -9 7 -14 18 -12 9 2 17 8
17 15 0 23 16 27 22 5 7 -28 43 -30 43 -2 0 11 5 20 10 20 6 0 10 -9 10 -20 0
-27 36 -27 43 1 3 12 10 18 16 15 6 -4 8 -13 4 -21 -3 -10 2 -15 16 -15 12 0
21 6 21 15 0 8 5 15 10 15 6 0 10 -9 10 -20 0 -30 14 -24 27 10 6 17 7 30 2
30 -5 0 -9 15 -9 33 -1 44 -27 88 -78 131 -63 52 -93 49 -159 -14z m87 -126
c0 -2 -12 -4 -26 -4 -14 0 -23 4 -20 9 6 8 46 4 46 -5z"/>
<path d="M8791 953 c-7 -14 -8 -29 -2 -45 6 -13 10 -18 11 -13 1 6 5 1 10 -10
7 -19 8 -18 15 7 4 16 1 37 -8 54 -14 27 -15 27 -26 7z"/>
<path d="M8247 953 c-4 -3 -7 -25 -7 -47 0 -30 3 -37 10 -26 9 13 10 13 10 0
1 -8 6 -4 11 10 16 39 -2 86 -24 63z"/>
<path d="M3853 919 c-23 -5 -47 -16 -53 -24 -11 -13 -7 -14 21 -10 l34 5 -35
-12 c-27 -9 -30 -12 -16 -16 14 -3 16 -6 6 -12 -9 -6 -14 -36 -15 -99 -1 -50
-4 -94 -8 -98 -4 -3 -7 -19 -7 -34 0 -16 -7 -29 -16 -33 -38 -15 7 -21 179
-27 l182 -5 -185 -1 -185 -1 -2 -26 -2 -26 279 0 279 0 -2 26 c-1 16 -12 31
-27 40 l-25 14 28 -6 c16 -4 27 -2 27 4 0 6 -13 13 -29 17 -26 6 -30 11 -36
56 -4 27 -10 49 -13 49 -4 0 -7 29 -7 64 0 35 3 62 8 59 4 -2 7 1 7 7 0 12
-41 30 -68 30 -15 0 -17 -10 -14 -75 3 -51 0 -75 -8 -75 -7 0 -10 25 -8 78 l3
77 30 0 c17 -1 40 -4 53 -9 14 -4 22 -3 22 3 0 6 -8 11 -17 12 -11 0 -13 3 -5
6 21 8 13 21 -20 33 -43 15 -301 22 -355 9z m125 -26 c-21 -2 -55 -2 -75 0
-21 2 -4 4 37 4 41 0 58 -2 38 -4z m170 0 c-10 -2 -26 -2 -35 0 -10 3 -2 5 17
5 19 0 27 -2 18 -5z m59 -9 c-3 -3 -12 -4 -19 -1 -8 3 -5 6 6 6 11 1 17 -2 13
-5z m-87 -51 c0 -27 3 -65 6 -85 5 -31 4 -38 -10 -38 -13 0 -16 13 -16 80 0
57 -4 80 -12 80 -10 0 -12 -21 -10 -80 3 -70 1 -80 -13 -80 -15 0 -17 10 -13
80 2 50 -1 80 -7 80 -6 0 -9 -30 -7 -80 l4 -80 -42 0 -42 0 4 80 c2 49 -1 80
-7 80 -6 0 -9 -31 -7 -80 4 -68 2 -80 -12 -80 -13 0 -16 13 -16 79 0 54 4 81
13 84 6 3 51 6 100 6 l87 1 0 -47z m-222 25 c15 -15 16 -148 2 -148 -6 0 -10
31 -10 74 0 74 0 75 -27 79 -28 4 -28 4 -2 6 14 0 30 -4 37 -11z m-28 -83 c0
-43 -4 -75 -10 -75 -11 0 -14 133 -3 143 12 13 13 7 13 -68z m320 0 c0 -43 -4
-75 -10 -75 -6 0 -10 32 -10 75 0 43 4 75 10 75 6 0 10 -32 10 -75z m-353 -42
c-2 -21 -4 -4 -4 37 0 41 2 58 4 38 2 -21 2 -55 0 -75z m370 0 c-2 -21 -4 -4
-4 37 0 41 2 58 4 38 2 -21 2 -55 0 -75z m-390 0 c-2 -21 -4 -6 -4 32 0 39 2
55 4 38 2 -18 2 -50 0 -70z m166 -70 c-7 -2 -19 -2 -25 0 -7 3 -2 5 12 5 14 0
19 -2 13 -5z m114 1 c-3 -3 -12 -4 -19 -1 -8 3 -5 6 6 6 11 1 17 -2 13 -5z
m66 -141 c-73 -2 -193 -2 -265 0 -73 1 -14 3 132 3 146 0 205 -2 133 -3z"/>
<path d="M3988 795 c5 -97 22 -98 22 0 0 53 -4 75 -12 75 -10 0 -12 -20 -10
-75z"/>
<path d="M7092 780 c0 -19 2 -27 5 -17 2 9 2 25 0 35 -3 9 -5 1 -5 -18z"/>
<path d="M6940 370 c0 -5 7 -7 15 -4 8 4 15 8 15 10 0 2 -7 4 -15 4 -8 0 -15
-4 -15 -10z"/>
</g>
</svg>
