<?xml version="1.0" standalone="no"?>
<!DOCTYPE svg PUBLIC "-//W3C//DTD SVG 20010904//EN"
 "http://www.w3.org/TR/2001/REC-SVG-20010904/DTD/svg10.dtd">
<svg version="1.0" xmlns="http://www.w3.org/2000/svg"
 width="340.000000pt" height="227.000000pt" viewBox="0 0 340.000000 227.000000"
 preserveAspectRatio="xMidYMid meet">

<g transform="translate(0.000000,227.000000) scale(0.100000,-0.100000)"
fill="#000000" stroke="none">
<path d="M1583 2240 c-80 -15 -161 -49 -184 -78 -16 -20 -20 -38 -17 -73 l3
-47 -85 -4 c-113 -7 -189 -36 -251 -98 -38 -38 -55 -48 -91 -52 -77 -9 -163
-55 -224 -121 -30 -32 -57 -71 -60 -86 -5 -21 -16 -30 -55 -44 -94 -34 -206
-180 -214 -278 -2 -32 -9 -45 -31 -60 -40 -26 -101 -121 -120 -185 -10 -34
-14 -81 -12 -122 3 -57 0 -70 -19 -90 -38 -41 -57 -117 -58 -224 0 -86 -2 -98
-17 -98 -31 0 -67 -22 -78 -50 -7 -17 -10 -79 -8 -168 2 -78 -1 -142 -5 -142
-4 0 -19 -11 -32 -25 -20 -20 -25 -34 -25 -77 1 -56 11 -77 47 -96 16 -9 433
-12 1658 -12 l1637 0 29 29 c24 25 29 37 29 81 0 41 -5 56 -25 75 -13 14 -28
25 -32 25 -4 0 -7 70 -5 155 3 154 3 155 -22 180 -17 17 -36 25 -60 25 l-34 0
10 38 c22 80 -11 233 -63 288 -18 19 -19 27 -10 59 21 78 -33 238 -105 308
-21 20 -43 37 -49 37 -5 0 -10 19 -10 43 0 93 -129 259 -222 287 -33 10 -42
18 -47 42 -16 80 -198 208 -295 208 -38 0 -48 4 -56 22 -29 65 -174 128 -295
128 l-68 0 5 43 c7 63 -35 109 -125 137 -77 24 -231 34 -309 20z m190 -60 c96
-11 161 -33 180 -60 10 -15 8 -59 -10 -237 -13 -120 -22 -227 -20 -238 2 -19
28 77 63 235 9 41 20 83 25 92 29 54 227 12 311 -67 31 -29 34 -16 -39 -190
-31 -71 -59 -141 -64 -155 l-9 -25 18 23 c9 13 51 83 94 155 l76 132 38 -2
c72 -5 167 -66 229 -146 36 -48 35 -49 -94 -200 -56 -66 -101 -122 -101 -125
0 -6 1 -5 150 132 58 53 113 96 124 96 49 0 153 -106 190 -194 28 -67 23 -80
-51 -127 -99 -62 -233 -151 -233 -155 0 -6 73 27 192 87 65 33 126 59 137 59
24 0 64 -46 98 -114 36 -69 46 -199 17 -214 -11 -5 -89 -29 -174 -53 -85 -23
-149 -44 -141 -47 7 -2 72 6 144 19 73 13 150 23 172 24 37 0 41 -3 62 -43 27
-53 38 -133 28 -207 l-6 -55 -220 0 -219 0 0 40 c0 52 -25 176 -52 260 -86
268 -291 505 -546 634 -385 194 -863 108 -1174 -212 -80 -82 -173 -216 -213
-306 -54 -122 -95 -283 -95 -373 l0 -43 -220 0 -219 0 -7 36 c-17 92 20 255
62 271 9 3 71 -4 138 -16 257 -46 271 -37 38 25 -77 21 -146 45 -157 55 -18
17 -18 23 -7 89 18 107 89 230 132 230 9 0 73 -27 140 -61 128 -62 190 -90
190 -85 0 3 -173 117 -262 173 -48 29 -49 57 -8 140 31 63 94 129 149 157 l31
16 117 -107 c65 -59 129 -116 143 -127 22 -19 23 -19 10 -2 -8 11 -61 74 -117
140 -57 67 -103 129 -103 138 0 24 67 100 121 137 26 18 70 39 99 48 65 19 66
17 142 -117 56 -99 108 -180 108 -168 0 10 -52 140 -88 218 -47 103 -47 106
-15 136 44 41 115 73 190 85 90 14 119 4 131 -48 5 -21 22 -92 37 -158 30
-132 47 -176 40 -105 -3 25 -12 113 -21 195 -8 83 -14 174 -12 204 l3 55 55
19 c30 10 82 22 115 27 33 4 62 8 65 9 3 0 44 -4 93 -9z m112 -636 c113 -26
255 -84 310 -128 11 -9 -17 2 -61 24 -45 22 -122 52 -170 67 -81 24 -104 27
-254 27 -194 1 -261 -14 -425 -94 -241 -117 -418 -322 -516 -595 -9 -27 -18
-45 -18 -38 -2 23 58 175 95 241 160 292 434 475 774 516 54 6 198 -4 265 -20z
m-164 -192 c21 -24 48 -69 60 -101 25 -65 36 -198 21 -254 -9 -33 -8 -37 8
-37 29 0 87 61 99 105 6 22 11 60 12 85 l0 45 31 -80 c80 -211 33 -394 -121
-473 -35 -17 -66 -30 -69 -28 -2 3 5 17 17 31 44 57 37 147 -18 199 l-29 28
19 43 c11 24 21 72 24 107 4 56 3 58 -4 17 -10 -54 -50 -149 -62 -149 -31 0
-52 98 -35 160 11 40 -93 -76 -117 -130 -24 -54 -26 -140 -4 -191 8 -20 32
-56 53 -79 l37 -41 -29 7 c-131 33 -204 121 -204 249 0 57 5 76 38 138 35 68
37 77 37 165 0 50 3 92 7 92 10 0 56 -58 63 -80 3 -11 10 -20 15 -20 16 0 51
79 57 129 5 46 2 58 -45 155 -12 23 105 -54 139 -92z m-66 -417 c2 -11 32 -48
66 -83 l61 -62 -4 -58 c-2 -35 -11 -68 -22 -82 -14 -19 -17 -20 -11 -5 12 31
18 92 11 120 -4 14 -31 49 -60 79 -56 55 -74 97 -60 138 l8 23 3 -25 c2 -14 6
-34 8 -45z m-85 -136 c11 -46 31 -87 76 -159 9 -14 -4 -4 -28 21 -45 47 -68
101 -68 158 0 44 6 38 20 -20z m-960 -289 c18 -18 20 -33 20 -133 0 -82 -4
-119 -14 -133 -13 -18 -30 -19 -222 -22 -114 -2 -218 -1 -230 2 -48 12 -54 30
-54 152 0 163 -16 154 260 154 207 0 221 -1 240 -20z m699 -6 c18 -23 21 -41
21 -131 0 -97 -2 -106 -25 -128 l-24 -25 -271 0 c-267 0 -302 4 -322 34 -4 6
-8 62 -8 124 0 164 -25 152 324 152 l285 0 20 -26z m689 10 c21 -14 22 -22 22
-135 0 -172 26 -159 -319 -159 -350 0 -326 -11 -326 155 0 166 -23 155 324
155 234 0 280 -2 299 -16z m702 -4 c18 -18 20 -33 20 -134 0 -166 20 -156
-327 -156 l-274 0 -24 25 c-24 23 -25 31 -25 134 0 162 -23 151 327 151 270 0
284 -1 303 -20z m564 -5 c25 -23 26 -28 26 -130 0 -100 -1 -107 -25 -131 l-25
-25 -221 3 c-205 3 -222 4 -235 22 -10 15 -14 52 -14 137 0 158 -16 149 256
149 210 0 211 0 238 -25z m-671 -332 c423 -5 574 -9 560 -17 -24 -14 -2829
-15 -2888 -1 -73 18 1370 29 2328 18z"/>
<path d="M1782 2064 c-12 -8 -27 -25 -34 -37 -10 -20 -10 -21 5 -8 13 10 17
10 17 1 0 -9 4 -9 18 1 15 13 16 12 3 -3 -9 -13 -10 -18 -2 -18 7 0 9 -5 6
-11 -5 -6 -11 -4 -19 7 -10 13 -15 14 -21 4 -6 -9 -4 -11 6 -5 12 8 12 6 0 -8
-14 -18 -26 -23 -16 -8 3 5 1 12 -4 16 -6 3 -16 -6 -23 -20 l-14 -25 -29 30
c-16 16 -37 30 -46 30 -10 0 -29 15 -43 32 -21 27 -28 30 -38 20 -11 -11 -7
-18 20 -40 18 -15 32 -34 32 -43 0 -10 16 -31 36 -49 31 -27 34 -33 21 -43
-58 -46 -117 -103 -117 -113 0 -41 36 -15 118 84 20 24 58 55 86 69 112 56
144 102 94 137 -28 20 -28 20 -56 0z m35 -1 c-4 -3 -2 -12 4 -20 7 -8 8 -18 3
-26 -5 -7 -1 -4 9 6 14 16 17 16 17 4 0 -16 -48 -67 -62 -67 -5 0 -10 0 -13 0
-8 0 -6 15 3 15 17 1 29 16 28 37 -1 15 -7 23 -19 22 -22 -2 -22 12 1 25 19
12 39 14 29 4z m-124 -138 c-3 -9 -8 -14 -10 -11 -3 3 -2 9 2 15 9 16 15 13 8
-4z"/>
<path d="M1704 1896 c-18 -14 -18 -16 15 -50 19 -20 43 -36 53 -36 10 0 25
-11 34 -25 18 -27 44 -34 44 -11 0 7 -11 21 -25 30 -14 9 -25 25 -25 34 0 19
-49 72 -66 72 -6 0 -19 -6 -30 -14z"/>
<path d="M1651 1221 c-12 -32 -38 -78 -59 -102 l-39 -43 -6 54 c-4 29 -10 57
-15 62 -5 5 -4 -13 1 -39 11 -52 9 -58 -64 -192 -44 -82 -36 -172 22 -234 l30
-32 -28 44 c-24 37 -28 55 -28 110 1 78 13 105 90 193 70 78 101 130 114 188
14 63 7 60 -18 -9z"/>
<path d="M1884 979 c-10 -12 -34 -28 -53 -36 -18 -8 -31 -16 -28 -19 8 -9 71
22 91 45 11 11 17 23 14 26 -3 3 -13 -5 -24 -16z"/>
<path d="M1943 933 c-3 -84 -26 -152 -71 -211 l-35 -47 33 25 c54 42 83 110
88 205 2 45 0 85 -4 88 -5 3 -10 -24 -11 -60z"/>
</g>
</svg>
