<?xml version="1.0" standalone="no"?>
<!DOCTYPE svg PUBLIC "-//W3C//DTD SVG 20010904//EN"
 "http://www.w3.org/TR/2001/REC-SVG-20010904/DTD/svg10.dtd">
<svg version="1.0" xmlns="http://www.w3.org/2000/svg"
 width="300.000000pt" height="198.000000pt" viewBox="0 0 300.000000 198.000000"
 preserveAspectRatio="xMidYMid meet">

<g transform="translate(0.000000,198.000000) scale(0.100000,-0.100000)"
fill="#000000" stroke="none">
<path d="M1363 1946 c-109 -19 -159 -62 -151 -131 l4 -35 -61 0 c-64 0 -142
-21 -185 -50 -14 -9 -32 -19 -41 -23 -9 -3 -23 -19 -30 -36 -13 -29 -17 -31
-68 -31 -43 0 -64 -6 -104 -31 -76 -47 -136 -107 -143 -144 -5 -28 -12 -35
-49 -45 -42 -12 -121 -82 -156 -140 -22 -37 -41 -108 -34 -130 4 -13 2 -20 -7
-20 -29 -1 -97 -82 -124 -147 -10 -22 -16 -68 -16 -116 0 -71 -4 -84 -30 -124
-38 -55 -57 -155 -41 -213 10 -39 10 -40 -16 -40 -15 0 -37 -7 -49 -16 -21
-14 -22 -22 -22 -159 0 -135 -1 -145 -20 -155 -19 -10 -21 -19 -18 -83 l3 -72
1484 -3 c1404 -2 1484 -1 1497 15 7 10 14 37 14 61 0 34 -6 49 -27 71 -28 27
-28 28 -25 146 2 71 -2 130 -8 146 -11 25 -46 49 -73 49 -8 0 -12 26 -12 88 0
76 -4 95 -29 147 -16 33 -32 62 -35 65 -3 3 -6 39 -6 80 0 75 -7 95 -61 193
-9 15 -30 38 -49 50 -29 18 -33 28 -37 72 -4 38 -14 64 -47 112 -49 70 -89
104 -143 122 -26 9 -38 18 -38 31 0 30 -103 133 -162 163 -35 18 -69 27 -100
27 -41 0 -49 3 -60 27 -7 15 -23 32 -34 38 -12 6 -28 16 -37 23 -28 23 -131
52 -186 52 l-57 0 4 40 c7 70 -49 109 -181 129 -92 13 -138 13 -234 -3z m287
-65 l65 -17 -1 -79 c0 -44 -4 -132 -7 -195 l-7 -115 20 60 c11 33 25 85 31
115 16 80 32 94 96 86 29 -3 63 -10 75 -15 13 -5 34 -12 48 -15 14 -4 43 -22
65 -40 l39 -35 -31 -68 c-43 -92 -93 -210 -93 -219 0 -11 47 58 75 108 11 20
32 59 47 86 38 69 49 76 95 62 66 -22 108 -47 151 -92 50 -50 60 -79 38 -105
-9 -10 -36 -41 -61 -69 -25 -28 -45 -55 -45 -60 0 -5 -8 -14 -19 -21 -10 -6
-29 -27 -42 -45 l-23 -33 25 20 c24 20 56 49 159 144 30 28 62 51 71 51 30 0
126 -89 149 -136 34 -74 36 -101 10 -129 -13 -14 -31 -25 -40 -25 -10 0 -37
-16 -61 -35 -24 -19 -48 -35 -52 -35 -5 0 -25 -12 -45 -27 -42 -30 -63 -49
-47 -41 163 80 286 138 294 138 5 0 26 -20 46 -45 53 -65 93 -219 63 -242 -7
-5 -65 -25 -128 -43 -63 -18 -122 -37 -130 -41 -29 -16 55 -9 146 11 118 26
129 25 154 -9 22 -32 39 -165 26 -215 l-6 -26 -195 0 -195 0 0 69 c0 71 -26
174 -61 243 -11 21 -19 45 -19 54 0 8 -18 41 -40 73 -22 31 -40 62 -40 68 0
23 -248 263 -271 263 -4 0 -29 13 -56 30 -123 75 -347 129 -489 116 -122 -11
-305 -69 -380 -120 -21 -14 -43 -26 -48 -26 -5 0 -39 -25 -76 -55 -197 -161
-322 -379 -351 -612 l-13 -103 -192 0 -191 0 -7 31 c-10 51 -7 102 10 160 25
87 25 87 162 60 163 -31 194 -24 67 16 -55 18 -116 36 -135 40 -34 9 -35 11
-38 63 -5 79 57 219 104 237 8 3 72 -23 142 -57 70 -35 136 -67 147 -72 l20
-9 -20 15 c-11 9 -29 24 -40 34 -11 10 -35 24 -52 31 -18 8 -33 17 -33 21 0 4
-17 16 -37 27 -63 31 -93 54 -93 71 0 23 31 102 40 102 4 0 11 11 14 25 4 14
19 32 34 42 15 9 38 28 51 40 32 31 57 29 88 -7 13 -16 31 -30 39 -30 8 0 17
-6 20 -13 3 -8 37 -43 77 -78 39 -35 67 -57 62 -49 -9 16 -105 131 -116 140
-15 12 -79 101 -79 110 0 18 103 120 122 120 10 0 18 4 18 9 0 6 25 18 56 27
l55 18 24 -30 c13 -16 24 -35 25 -42 0 -7 15 -36 34 -65 18 -28 45 -73 60 -99
32 -57 43 -63 20 -10 -9 20 -21 51 -27 67 -6 17 -25 62 -43 100 -18 39 -35 77
-37 86 -6 20 71 80 118 92 80 21 128 28 152 20 27 -9 32 -24 95 -278 21 -85
19 -19 -5 183 -19 159 -21 196 -10 211 12 18 105 48 173 55 51 5 136 -4 210
-23z m20 -545 c73 -13 98 -22 206 -71 58 -27 173 -110 224 -163 58 -61 152
-191 147 -204 -2 -7 -11 2 -21 20 -9 17 -20 32 -25 32 -4 0 -14 12 -22 28 -11
22 -61 81 -95 113 -54 49 -103 89 -111 89 -5 0 -18 8 -29 18 -25 23 -92 62
-107 62 -7 0 -25 7 -40 15 -81 42 -156 55 -315 55 -85 0 -153 2 -150 5 11 12
135 23 198 19 36 -3 99 -11 140 -18z m-425 -35 c-44 -16 -88 -32 -97 -36 -10
-4 -18 -4 -18 -1 0 14 126 65 160 65 29 0 21 -5 -45 -28z m-141 -54 c-68 -39
-70 -40 -40 -13 16 14 36 26 45 26 12 0 10 -4 -5 -13z m470 -41 c-22 -39 -25
-55 -20 -93 9 -65 66 -151 66 -99 0 15 47 76 58 76 4 0 7 -37 7 -82 0 -73 4
-91 33 -152 43 -91 44 -156 3 -227 -21 -36 -43 -59 -77 -79 -62 -34 -100 -44
-110 -28 -4 7 -3 10 1 5 13 -11 85 64 85 88 -1 17 -3 15 -17 -10 -15 -27 -54
-67 -61 -60 -2 1 10 22 27 46 16 25 34 60 39 79 l10 35 2 -35 2 -35 8 29 c11
34 -5 119 -27 154 -8 13 -32 42 -54 65 -40 42 -40 42 -32 12 4 -16 7 -42 7
-57 -1 -29 -28 -78 -43 -78 -9 0 -44 98 -55 150 -3 14 -3 -1 0 -33 2 -32 11
-72 19 -87 20 -39 19 -57 -6 -70 -23 -13 -49 -67 -49 -103 0 -13 11 -41 25
-62 15 -20 24 -39 22 -41 -2 -2 -31 11 -65 28 -65 35 -107 86 -132 163 -20 60
-8 167 28 255 l31 75 0 -69 c1 -67 2 -70 41 -108 52 -49 72 -51 59 -6 -22 79
-2 205 42 270 11 14 19 30 19 35 0 13 129 107 137 100 2 -2 -9 -25 -23 -51z
m715 -388 c45 -99 46 -122 1 -29 -42 88 -43 91 -35 91 3 0 18 -28 34 -62z
m-749 -38 c-8 -30 -20 -47 -44 -61 -51 -30 -68 -102 -41 -174 4 -11 -2 -6 -14
10 -13 19 -21 46 -21 74 0 39 5 48 56 100 32 33 58 68 61 86 4 16 8 24 10 18
2 -6 -1 -30 -7 -53z m-1018 -357 c15 -13 18 -32 18 -116 0 -144 11 -137 -225
-137 -238 0 -235 -2 -235 123 0 95 7 127 26 127 8 0 14 5 14 10 0 6 71 10 192
10 164 0 194 -2 210 -17z m620 0 c15 -13 18 -32 18 -115 0 -146 16 -138 -280
-138 -160 0 -247 4 -265 12 -25 11 -25 13 -25 124 0 97 2 114 18 123 10 6 116
11 266 11 218 0 252 -2 268 -17z m613 5 c25 -11 25 -13 25 -123 0 -110 0 -112
-25 -123 -18 -8 -106 -12 -270 -12 -208 0 -246 2 -259 16 -13 12 -16 39 -16
124 0 93 3 110 18 119 25 15 494 14 527 -1z m623 -4 c20 -14 22 -23 22 -119
l0 -104 -30 -16 c-24 -12 -73 -15 -268 -15 -295 0 -282 -6 -282 135 0 142 -14
135 290 135 206 0 249 -3 268 -16z m504 -1 c15 -14 18 -32 18 -119 0 -139 8
-134 -225 -134 -239 0 -229 -5 -233 130 -4 146 -14 140 231 140 163 0 193 -2
209 -17z m-85 -307 c10 -9 -1284 -18 -1827 -12 -819 8 -858 10 -430 17 360 6
2251 2 2257 -5z"/>
<path d="M1368 1796 c-24 -18 -22 -49 4 -72 l22 -19 -17 25 c-9 13 -17 31 -16
40 0 10 2 11 6 2 2 -6 9 -10 13 -7 5 3 7 12 3 20 -3 8 0 15 7 15 6 0 9 -4 6
-9 -3 -4 3 -16 14 -26 13 -11 20 -14 20 -6 0 7 5 9 11 6 6 -4 8 -14 4 -24 -5
-12 -3 -13 5 -5 9 9 9 17 0 34 -7 14 -15 19 -19 12 -4 -7 -12 -8 -21 -2 -13 9
-13 10 0 10 13 0 13 1 0 10 -19 12 -21 12 -42 -4z"/>
<path d="M1590 1775 c-13 -14 -28 -25 -33 -25 -5 0 -23 -12 -40 -26 -28 -23
-32 -24 -43 -10 -13 19 -29 22 -18 4 5 -9 3 -9 -9 1 -9 7 -14 18 -10 25 3 6 2
8 -2 3 -5 -4 -16 0 -25 8 -15 14 -18 14 -23 1 -3 -8 1 -20 8 -26 8 -7 13 -16
10 -20 -3 -4 9 -13 25 -20 16 -7 35 -19 42 -28 10 -12 10 -14 0 -8 -17 10 -72
-31 -72 -55 0 -10 -9 -24 -20 -31 -19 -12 -28 -38 -12 -38 4 0 15 9 25 20 9
11 25 20 35 20 18 0 69 58 64 73 -1 4 6 3 17 -3 11 -5 22 -18 26 -29 6 -21 69
-81 85 -81 31 0 -1 39 -87 107 -13 10 -11 16 16 45 17 18 31 37 31 42 0 6 12
22 26 37 14 15 21 29 16 33 -5 3 -20 -6 -32 -19z m-166 -52 c10 -25 3 -23 -17
3 -13 18 -14 22 -3 18 8 -3 17 -13 20 -21z m84 -58 c-3 -3 -9 2 -12 12 -6 14
-5 15 5 6 7 -7 10 -15 7 -18z"/>
<path d="M1691 1434 c0 -11 3 -14 6 -6 3 7 2 16 -1 19 -3 4 -6 -2 -5 -13z"/>
<path d="M1520 1067 c5 -17 12 -44 17 -59 8 -25 53 -86 99 -132 49 -49 63 -81
66 -152 l3 -69 9 48 c9 54 -13 145 -41 169 -27 22 -45 78 -39 122 5 38 4 37
-8 -9 l-13 -50 -31 34 c-18 18 -37 53 -43 77 -6 25 -15 46 -19 49 -4 3 -4 -10
0 -28z"/>
<path d="M1264 845 c-12 -30 3 -141 24 -187 12 -25 36 -57 54 -70 l33 -23 -37
46 c-21 25 -38 54 -38 63 0 10 -5 26 -10 36 -6 11 -11 49 -12 85 -2 68 -5 75
-14 50z"/>
<path d="M1300 853 c0 -14 47 -56 57 -52 5 2 -6 17 -24 32 -18 16 -33 25 -33
20z"/>
<path d="M1665 613 l-28 -38 34 32 c18 18 30 35 27 38 -3 3 -18 -11 -33 -32z"/>
</g>
</svg>
